<?xml version="1.0"?><svg width="793.7007866666665" height="1122.5196799999999" xmlns="http://www.w3.org/2000/svg">

 <g>
  <title>Layer 1</title>
  <g externalResourcesRequired="false" id="layer1">
   <path fill="#ffff00" stroke="#000000" stroke-width="18.700001" stroke-miterlimit="4" id="path7" d="m263.41571,235.145874c-66.240005,0 -119.999954,53.76001 -119.999954,120c0,134.755524 135.933151,170.08728 228.562454,303.308044c87.574219,-132.403381 228.5625,-172.854584 228.5625,-303.308044c0,-66.23999 -53.759888,-120 -120,-120c-48.047913,0 -89.401611,28.370422 -108.5625,69.1875c-19.160797,-40.817078 -60.514496,-69.1875 -108.5625,-69.1875z"/>
   <path fill="#e6e6e6" fill-opacity="0.64557" stroke-width="18.700001" stroke-miterlimit="4" id="path220" d="m265,253.59375c-57.959671,0 -105,47.040314 -105,105c0,117.9104 118.918579,148.838745 199.96875,265.40625c6.559937,-9.917969 -139.96875,-145.526917 -139.96875,-245.40625c0,-57.959686 47.040344,-105 105,-105c0.504517,0 0.997192,0.055359 1.5,0.0625c-17.275635,-12.583405 -38.494415,-20.062515 -61.5,-20.0625z"/>
  </g>
 </g>
</svg>